<svg xmlns="http://www.w3.org/2000/svg" xmlns:xlink="http://www.w3.org/1999/xlink" width="500" zoomAndPan="magnify" viewBox="0 0 375 374.999991" height="500" preserveAspectRatio="xMidYMid meet" version="1.0"><defs><clipPath id="id1"><path d="M 19.957031 1.804688 L 355.367188 1.804688 L 355.367188 373.054688 L 19.957031 373.054688 Z M 19.957031 1.804688 " clip-rule="nonzero"/></clipPath></defs><g clip-path="url(#id1)"><path fill="#04cbad" d="M 343.429688 343.09375 C 343.429688 353.015625 335.351562 361.089844 325.460938 361.089844 L 121.804688 361.089844 C 125.695312 355.917969 127.804688 349.589844 127.769531 343.09375 L 127.769531 337.128906 L 343.429688 337.128906 Z M 115.800781 331.132812 L 115.800781 343.09375 C 115.800781 353.015625 107.757812 361.089844 97.832031 361.089844 C 87.910156 361.089844 79.863281 353.015625 79.863281 343.09375 L 79.863281 31.730469 C 79.832031 25.238281 77.6875 18.945312 73.699219 13.769531 L 289.492188 13.769531 C 306.042969 13.800781 319.429688 27.183594 319.460938 43.730469 L 319.460938 325.164062 L 121.804688 325.164062 C 118.472656 325.164062 115.800781 327.835938 115.800781 331.132812 Z M 67.863281 73.65625 L 31.925781 73.65625 L 31.925781 31.730469 C 31.925781 21.8125 39.96875 13.769531 49.894531 13.769531 C 59.820312 13.769531 67.863281 21.8125 67.863281 31.730469 Z M 349.398438 325.164062 L 331.429688 325.164062 L 331.429688 43.730469 C 331.429688 20.59375 312.636719 1.839844 289.492188 1.804688 L 49.894531 1.804688 C 33.375 1.839844 19.992188 15.21875 19.957031 31.730469 L 19.957031 79.65625 C 19.957031 82.949219 22.628906 85.621094 25.957031 85.621094 L 67.863281 85.621094 L 67.863281 343.09375 C 67.894531 359.640625 81.28125 373.023438 97.832031 373.054688 L 325.460938 373.054688 C 341.980469 373.023438 355.367188 359.640625 355.398438 343.09375 L 355.398438 331.132812 C 355.398438 327.835938 352.695312 325.164062 349.398438 325.164062 " fill-opacity="1" fill-rule="nonzero"/></g><path fill="#04cbad" d="M 115.800781 247.316406 L 115.800781 163.46875 L 283.523438 163.46875 L 283.523438 247.316406 Z M 283.523438 115.578125 L 283.523438 151.503906 L 115.800781 151.503906 L 115.800781 115.578125 Z M 295.492188 253.28125 L 295.492188 109.582031 C 295.492188 106.285156 292.820312 103.617188 289.492188 103.617188 L 109.800781 103.617188 C 106.503906 103.617188 103.835938 106.285156 103.835938 109.582031 L 103.835938 253.28125 C 103.835938 256.609375 106.503906 259.28125 109.800781 259.28125 L 289.492188 259.28125 C 292.820312 259.28125 295.492188 256.609375 295.492188 253.28125 " fill-opacity="1" fill-rule="nonzero"/><path fill="#04cbad" d="M 214.316406 176.09375 C 211.351562 174.609375 207.757812 175.796875 206.273438 178.761719 L 182.304688 226.683594 C 180.820312 229.652344 182.039062 233.210938 185.007812 234.695312 C 187.976562 236.175781 191.570312 234.988281 193.050781 232.023438 L 216.988281 184.101562 C 218.472656 181.167969 217.285156 177.574219 214.316406 176.09375 Z M 251.804688 177.214844 C 249.464844 174.871094 245.671875 174.871094 243.363281 177.214844 L 219.394531 201.175781 C 217.054688 203.515625 217.054688 207.273438 219.394531 209.644531 L 243.363281 233.574219 C 245.707031 235.878906 249.53125 235.8125 251.804688 233.441406 C 254.046875 231.101562 254.046875 227.441406 251.804688 225.101562 L 232.089844 205.394531 L 251.804688 185.683594 C 254.144531 183.34375 254.144531 179.554688 251.804688 177.214844 Z M 155.960938 177.214844 C 153.585938 174.90625 149.796875 174.972656 147.488281 177.34375 C 145.246094 179.683594 145.246094 183.34375 147.488281 185.683594 L 167.238281 205.394531 L 147.488281 225.101562 C 145.113281 227.410156 145.046875 231.199219 147.355469 233.574219 C 149.664062 235.980469 153.453125 236.042969 155.828125 233.703125 C 155.863281 233.671875 155.925781 233.640625 155.960938 233.574219 L 179.929688 209.644531 C 182.269531 207.273438 182.269531 203.515625 179.929688 201.175781 Z M 229.617188 139.539062 L 235.585938 139.539062 C 238.914062 139.539062 241.585938 136.839844 241.585938 133.542969 C 241.585938 130.246094 238.914062 127.542969 235.585938 127.542969 L 229.617188 127.542969 C 226.320312 127.542969 223.617188 130.246094 223.617188 133.542969 C 223.617188 136.839844 226.320312 139.539062 229.617188 139.539062 Z M 259.554688 139.539062 L 265.554688 139.539062 C 268.851562 139.539062 271.523438 136.839844 271.523438 133.542969 C 271.523438 130.246094 268.851562 127.542969 265.554688 127.542969 L 259.554688 127.542969 C 256.257812 127.542969 253.554688 130.246094 253.554688 133.542969 C 253.554688 136.839844 256.257812 139.539062 259.554688 139.539062 " fill-opacity="1" fill-rule="nonzero"/></svg>